<svg width="271" height="271" viewBox="0 0 271 271" fill="none" xmlns="http://www.w3.org/2000/svg">
<path fill-rule="evenodd" clip-rule="evenodd" d="M134.426 155.378L171.909 134.643L134.426 113.908V113.85L134.374 113.879L134.322 113.85V113.908L96.8394 134.643L134.322 155.378V155.436L134.374 155.407L134.426 155.436V155.378Z" fill="white"/>
<path fill-rule="evenodd" clip-rule="evenodd" d="M0 135.245L134.186 61.0138V60.8062L134.374 60.91L134.562 60.8062V61.0138L268.748 135.245L134.562 209.476V209.683L134.374 209.58L134.186 209.683V209.476L0 135.245ZM33.0305 134.494L133.483 79.7267V79.5735L133.623 79.6501L133.764 79.5735V79.7267L234.216 134.494L133.764 189.261V189.415L133.623 189.338L133.483 189.415V189.261L33.0305 134.494Z" fill="white"/>
<path d="M0 135.313H30.361V202.781L0 182.916V135.313Z" fill="white"/>
<path d="M268.751 135.313H238.39V202.781L268.751 182.916V135.313Z" fill="white"/>
<rect x="120.32" y="194.16" width="30.361" height="67.4689" fill="white"/>
</svg>
